<svg width="257" height="82" viewBox="0 0 257 82" fill="none" xmlns="http://www.w3.org/2000/svg">
<path d="M7.79201 80.832C5.61601 80.832 3.84534 80.256 2.48001 79.104C1.11467 77.952 0.432007 76.3947 0.432007 74.432C0.432007 72.4267 1.24267 70.208 2.86401 67.776C4.18667 65.856 6.12801 63.808 8.68801 61.632C11.248 59.4987 14.3627 57.5147 18.032 55.68C21.7013 53.8027 25.8187 52.3733 30.384 51.392C30.4267 50.9653 30.448 50.5387 30.448 50.112C30.448 49.6853 30.448 49.2587 30.448 48.832C30.448 45.1627 30.128 41.4293 29.488 37.632C28.848 33.8347 28.0373 30.1227 27.056 26.496C26.2453 30.6346 25.1573 34.5387 23.792 38.208C22.4267 41.8773 20.9547 45.12 19.376 47.936C17.7973 50.7093 16.1973 52.8853 14.576 54.464C12.9973 56.0427 11.5253 56.832 10.16 56.832C9.00801 56.832 8.00534 56.192 7.15201 54.912C6.34134 53.632 5.76534 51.5627 5.42401 48.704C5.38134 48.4907 5.36001 48.2347 5.36001 47.936C5.36001 47.5947 5.36001 47.2533 5.36001 46.912C5.36001 45.504 5.44534 43.7333 5.61601 41.6C5.78667 39.424 6.00001 37.0347 6.25601 34.432C6.51201 31.8293 6.74667 29.1413 6.96001 26.368C7.21601 23.5947 7.42934 20.9067 7.60001 18.304C7.77067 15.6586 7.85601 13.2267 7.85601 11.008C7.85601 8.36265 7.68534 6.20798 7.34401 4.54398C7.00267 2.83732 6.38401 1.98398 5.48801 1.98398C4.89067 1.98398 4.33601 2.30398 3.82401 2.94398C3.31201 3.54131 2.86401 4.22398 2.48001 4.99198C2.05334 5.71732 1.73334 6.31465 1.52001 6.78398C1.26401 7.25332 1.11467 7.33865 1.07201 7.03998C1.02934 6.86931 1.00801 6.71998 1.00801 6.59198C0.96534 6.42132 0.944007 6.25065 0.944007 6.07998C0.944007 5.26932 1.13601 4.41598 1.52001 3.51998C1.90401 2.62398 2.41601 1.85598 3.05601 1.21598C3.69601 0.575981 4.42134 0.255981 5.23201 0.255981C5.53067 0.255981 5.87201 0.319982 6.25601 0.447983C8.00534 1.13065 9.20001 2.64531 9.84001 4.99198C10.5227 7.33865 10.864 10.1333 10.864 13.376C10.864 15.8506 10.736 18.4746 10.48 21.248C10.224 24.0213 9.92534 26.7947 9.58401 29.568C9.24267 32.3413 8.94401 34.9653 8.68801 37.44C8.43201 39.9147 8.30401 42.112 8.30401 44.032C8.30401 44.5013 8.30401 44.9706 8.30401 45.44C8.34667 45.8667 8.38934 46.272 8.43201 46.656C8.77334 49.344 9.24267 51.2427 9.84001 52.352C10.4373 53.4613 11.12 54.016 11.888 54.016C12.7413 54.016 13.616 53.5467 14.512 52.608C15.4507 51.6693 16.368 50.496 17.264 49.088C18.16 47.68 18.9707 46.272 19.696 44.864C20.592 43.2 21.4453 41.1307 22.256 38.656C23.0667 36.1387 23.8133 33.5573 24.496 30.912C25.2213 28.224 25.7973 25.792 26.224 23.616L25.648 21.76C25.5627 21.12 25.712 20.6507 26.096 20.352C26.48 20.0107 26.8853 19.84 27.312 19.84C28.1653 19.84 28.72 20.1813 28.976 20.864C29.616 22.4 30.1707 24.4693 30.64 27.072C31.152 29.6746 31.536 32.512 31.792 35.584C32.048 38.6133 32.176 41.6 32.176 44.544C32.176 45.6533 32.1547 46.7627 32.112 47.872C32.0693 48.9387 32.0053 49.9627 31.92 50.944C33.2853 50.7307 34.672 50.5387 36.08 50.368C37.5307 50.1547 39.024 50.048 40.56 50.048H40.88C41.392 50.048 41.648 50.1333 41.648 50.304C41.648 50.432 41.4987 50.5813 41.2 50.752C40.9013 50.88 40.4747 50.9653 39.92 51.008C38.5973 51.0933 37.232 51.2427 35.824 51.456C34.4587 51.6267 33.0933 51.8827 31.728 52.224C30.96 56.5333 29.872 60.288 28.464 63.488C27.056 66.688 25.4773 69.376 23.728 71.552C21.9787 73.728 20.208 75.4773 18.416 76.8C16.496 78.208 14.6187 79.232 12.784 79.872C10.9493 80.512 9.28534 80.832 7.79201 80.832ZM7.08801 79.872C7.98401 79.872 9.00801 79.7013 10.16 79.36C11.312 79.0187 12.5493 78.4427 13.872 77.632C16.8587 75.8827 19.504 73.7067 21.808 71.104C24.112 68.544 25.9893 65.6853 27.44 62.528C28.8907 59.4133 29.8293 56.1493 30.256 52.736C27.2693 53.504 24.1973 54.656 21.04 56.192C17.9253 57.728 15.0027 59.52 12.272 61.568C9.54134 63.616 7.25867 65.856 5.42401 68.288C4.44267 69.568 3.71734 70.8053 3.24801 72C2.77867 73.2373 2.54401 74.368 2.54401 75.392C2.54401 76.7147 2.94934 77.7813 3.76001 78.592C4.52801 79.4453 5.63734 79.872 7.08801 79.872Z" fill="#FFE8E8"/>
<path d="M42.125 58.24C40.717 58.24 39.565 57.8133 38.669 56.96C37.8157 56.1067 37.1757 55.0187 36.749 53.696C36.3223 52.3307 36.109 50.9013 36.109 49.408C36.109 48.512 36.1943 47.6587 36.365 46.848C36.5357 46.0373 36.7063 45.376 36.877 44.864C36.8343 44.5653 36.7917 44.2666 36.749 43.968C36.749 43.6266 36.749 43.2853 36.749 42.944C36.749 41.7067 36.877 40.3627 37.133 38.912C37.389 37.4613 37.7943 36.0746 38.349 34.752C38.9463 33.4293 39.6717 32.3627 40.525 31.552C41.421 30.6987 42.509 30.272 43.789 30.272C44.8983 30.272 45.9863 30.7413 47.053 31.68C48.1197 32.576 49.0583 33.8986 49.869 35.648C50.3383 36.6293 50.6583 37.696 50.829 38.848C51.0423 39.9573 51.149 41.088 51.149 42.24C51.149 43.8186 50.9783 45.3973 50.637 46.976C50.3383 48.512 49.8903 49.9627 49.293 51.328C48.8663 52.3093 48.2903 53.3547 47.565 54.464C46.8823 55.5307 46.093 56.4267 45.197 57.152C44.301 57.8773 43.277 58.24 42.125 58.24ZM42.445 56.832C43.8957 56.832 45.2397 55.8293 46.477 53.824C47.373 52.416 48.013 50.816 48.397 49.024C48.781 47.1893 48.973 45.3547 48.973 43.52C48.973 42.1547 48.8877 40.832 48.717 39.552C48.5463 38.272 48.2903 37.0346 47.949 35.84C47.6503 34.7733 47.1383 33.8347 46.413 33.024C45.7303 32.1707 44.749 31.808 43.469 31.936C42.445 32.0213 41.549 32.5333 40.781 33.472C40.013 34.4107 39.4157 35.4773 38.989 36.672C38.605 37.824 38.413 38.8267 38.413 39.68C38.413 40.1493 38.477 40.512 38.605 40.768C38.733 40.4266 39.053 39.872 39.565 39.104C40.077 38.2933 40.653 37.568 41.293 36.928C41.933 36.2453 42.5303 35.904 43.085 35.904C43.5543 35.904 43.789 36.096 43.789 36.48C43.2343 36.5227 42.6797 36.864 42.125 37.504C41.613 38.1013 41.1223 38.8267 40.653 39.68C40.2263 40.5333 39.8637 41.3866 39.565 42.24C39.309 43.0506 39.117 43.6907 38.989 44.16C38.9463 44.3307 38.8823 44.544 38.797 44.8C38.7117 45.056 38.669 45.312 38.669 45.568C38.669 45.8667 38.8397 46.3573 39.181 47.04C39.5223 47.68 40.077 48.2773 40.845 48.832C41.613 49.3867 42.6583 49.664 43.981 49.664C44.365 49.664 44.7703 49.6213 45.197 49.536C45.6237 49.4507 46.029 49.3653 46.413 49.28L46.861 49.152C46.9463 49.152 46.989 49.1947 46.989 49.28C46.989 49.408 46.8397 49.5787 46.541 49.792C46.285 49.9627 46.0503 50.0907 45.837 50.176C45.2397 50.4747 44.5783 50.624 43.853 50.624C42.7863 50.624 41.7623 50.304 40.781 49.664C39.8423 48.9813 39.0103 48.2133 38.285 47.36C38.2423 47.7013 38.221 48.0427 38.221 48.384C38.221 48.6827 38.221 48.9813 38.221 49.28C38.221 51.7547 38.6477 53.632 39.501 54.912C40.3543 56.192 41.3357 56.832 42.445 56.832Z" fill="#FFE8E8"/>
<path d="M55.0185 55.488C54.4638 55.488 53.9945 55.2106 53.6105 54.656C53.2692 54.1013 53.1198 53.2053 53.1625 51.968C53.1625 51.3706 53.3332 50.3893 53.6745 49.024C54.0158 47.616 54.3785 46.0586 54.7625 44.352C55.1892 42.6453 55.5518 40.9813 55.8505 39.36C56.1918 37.7387 56.3625 36.416 56.3625 35.392C56.3625 34.9227 56.3198 34.5386 56.2345 34.24C56.1492 33.8986 55.9358 33.728 55.5945 33.728C55.3385 33.728 55.1038 33.856 54.8905 34.112C54.6772 34.3253 54.4638 34.5387 54.2505 34.752C53.9518 35.136 53.7812 35.328 53.7385 35.328C53.6958 35.328 53.6745 35.264 53.6745 35.136C53.6745 34.624 53.8665 34.0693 54.2505 33.472C54.6772 32.832 55.1678 32.512 55.7225 32.512C56.4052 32.512 56.8958 32.8533 57.1945 33.536C57.4932 34.176 57.6425 35.0933 57.6425 36.288C57.6425 37.6107 57.4932 39.104 57.1945 40.768C56.8958 42.432 56.5758 43.9893 56.2345 45.44C56.0638 46.1227 55.9145 46.9547 55.7865 47.936C55.6585 48.9173 55.5945 49.8773 55.5945 50.816C55.5945 51.6267 55.6585 52.3093 55.7865 52.864C55.9572 53.376 56.2558 53.632 56.6825 53.632C57.0238 53.632 57.4292 53.44 57.8985 53.056C58.4105 52.6293 59.0078 51.9253 59.6905 50.944C60.6718 49.5787 61.5465 48.0213 62.3145 46.272C63.1252 44.48 63.8718 42.8586 64.5545 41.408C64.8105 40.8106 65.1305 40.512 65.5145 40.512C66.4958 40.512 66.9865 41.0453 66.9865 42.112C66.9865 42.9227 66.8585 43.9466 66.6025 45.184C66.3892 46.3787 66.2825 47.5307 66.2825 48.64C66.2825 50.6453 66.6665 51.648 67.4345 51.648C67.8185 51.648 68.2025 51.4133 68.5865 50.944C69.0132 50.432 69.2478 50.1333 69.2905 50.048C69.5465 49.7493 69.7812 49.6 69.9945 49.6C70.2505 49.6 70.3785 49.7493 70.3785 50.048C70.3785 50.6027 70.0585 51.2 69.4185 51.84C68.7785 52.48 68.0958 52.8 67.3705 52.8C66.6878 52.8 66.1332 52.5653 65.7065 52.096C65.3225 51.584 64.9598 50.9227 64.6185 50.112C64.2345 49.1307 64.0425 48.2773 64.0425 47.552C64.0425 46.8267 63.9998 46.1227 63.9145 45.44C63.6158 46.464 63.1038 47.552 62.3785 48.704C61.6958 49.856 60.9065 50.9653 60.0105 52.032C59.1572 53.056 58.2825 53.888 57.3865 54.528C56.4905 55.168 55.7012 55.488 55.0185 55.488Z" fill="#FFE8E8"/>
<path d="M101.243 67.2C100.304 67.2 99.579 66.7947 99.067 65.984C98.5977 65.1733 98.363 64.2347 98.363 63.168C98.363 61.888 98.5977 60.416 99.067 58.752C99.5363 57.1307 100.134 55.4666 100.859 53.76C101.584 52.0106 102.331 50.3253 103.099 48.704C103.91 47.0826 104.614 45.632 105.211 44.352C105.851 43.072 106.278 42.0906 106.491 41.408C106.747 40.64 106.875 40.064 106.875 39.68C106.875 39.2533 106.726 39.04 106.427 39.04C106.086 39.04 105.574 39.3173 104.891 39.872C104.251 40.384 103.632 40.96 103.035 41.6C102.438 42.24 102.011 42.7093 101.755 43.008C100.347 44.544 99.1097 46.2506 98.043 48.128C96.9763 50.0053 96.2937 51.6053 95.995 52.928C95.9523 53.1413 95.8883 53.5253 95.803 54.08C95.7177 54.592 95.5257 54.848 95.227 54.848C94.9283 54.848 94.6937 54.6987 94.523 54.4C94.395 54.1013 94.3097 53.7813 94.267 53.44C94.2243 53.2267 94.1817 52.8213 94.139 52.224C94.139 51.584 94.139 51.1147 94.139 50.816C94.139 48.9813 94.331 47.1467 94.715 45.312C95.099 43.4347 95.5257 41.6426 95.995 39.936C96.507 38.1866 96.955 36.5867 97.339 35.136C97.723 33.6853 97.915 32.448 97.915 31.424C97.915 30.7413 97.787 30.1867 97.531 29.76C97.3177 29.2906 97.0403 29.056 96.699 29.056C96.187 29.056 95.5897 29.4826 94.907 30.336C94.267 31.1893 93.6057 32.3413 92.923 33.792C92.2403 35.2427 91.6003 36.8427 91.003 38.592C90.4483 40.3413 89.979 42.112 89.595 43.904C89.2537 45.696 89.083 47.3813 89.083 48.96C89.083 49.856 89.147 50.7733 89.275 51.712C89.4457 52.6506 89.531 53.4827 89.531 54.208C89.531 54.7627 89.4457 55.168 89.275 55.424C89.147 55.68 88.8057 55.808 88.251 55.808C87.227 55.808 86.587 54.8053 86.331 52.8C86.0323 51.0507 85.7123 49.0667 85.371 46.848C85.0723 44.6293 84.6883 42.6667 84.219 40.96C84.091 40.4907 83.9417 40 83.771 39.488C83.6003 38.976 83.2803 38.5067 82.811 38.08C82.7683 37.9947 82.6617 37.9093 82.491 37.824C82.3203 37.7386 82.235 37.6533 82.235 37.568C82.235 37.3973 82.4697 37.312 82.939 37.312C83.579 37.312 84.1763 37.6747 84.731 38.4C85.2857 39.0827 85.7763 39.936 86.203 40.96C86.6297 41.984 86.9923 43.008 87.291 44.032C87.6323 45.0133 87.8883 45.8027 88.059 46.4C88.443 44.0533 88.8697 41.92 89.339 40C89.8083 38.0373 90.4057 36.1387 91.131 34.304C91.643 33.0667 92.2403 31.872 92.923 30.72C93.6057 29.568 94.3737 28.6293 95.227 27.904C96.0803 27.136 96.9763 26.752 97.915 26.752C98.5123 26.752 99.2163 27.072 100.027 27.712C100.88 28.352 101.307 29.376 101.307 30.784C101.307 31.424 101.136 32.192 100.795 33.088C100.496 33.9413 100.155 34.9013 99.771 35.968C99.2163 37.4613 98.619 39.1466 97.979 41.024C97.339 42.8586 96.7843 44.544 96.315 46.08C95.8457 47.616 95.5683 48.6827 95.483 49.28C95.3977 49.9627 95.3337 50.5387 95.291 51.008C95.291 51.4347 95.291 51.84 95.291 52.224C95.547 51.1147 96.1017 49.8347 96.955 48.384C97.851 46.8906 98.6617 45.632 99.387 44.608C100.198 43.456 101.051 42.368 101.947 41.344C102.886 40.2773 103.846 39.424 104.827 38.784C105.851 38.1013 106.854 37.76 107.835 37.76C108.304 37.76 108.71 37.888 109.051 38.144C109.392 38.4 109.563 38.8906 109.563 39.616C109.563 40.5973 109.243 41.728 108.603 43.008C108.006 44.2453 107.259 45.5253 106.363 46.848C105.51 48.128 104.72 49.3867 103.995 50.624C103.056 52.2453 102.182 53.9947 101.371 55.872C100.603 57.7067 100.219 59.6053 100.219 61.568C100.219 63.1893 100.411 64.3626 100.795 65.088C101.222 65.8133 101.67 66.176 102.139 66.176C102.438 66.176 102.736 66.0693 103.035 65.856C103.376 65.6427 103.654 65.4506 103.867 65.28C103.952 65.1947 104.08 65.0667 104.251 64.896C104.422 64.768 104.571 64.704 104.699 64.704C104.87 64.704 104.891 64.8747 104.763 65.216C104.72 65.3867 104.592 65.5573 104.379 65.728C104.166 65.9413 104.016 66.0907 103.931 66.176C103.12 66.8587 102.224 67.2 101.243 67.2Z" fill="#FFE8E8"/>
<path d="M116.322 34.624C115.938 34.624 115.66 34.432 115.49 34.048C115.362 33.6213 115.298 33.3227 115.298 33.152C115.298 32.4693 115.49 31.8293 115.874 31.232C116.3 30.592 116.77 30.2507 117.282 30.208H117.474C117.986 30.208 118.327 30.336 118.498 30.592C118.711 30.8053 118.818 31.0827 118.818 31.424C118.818 32.064 118.54 32.768 117.986 33.536C117.431 34.2613 116.876 34.624 116.322 34.624ZM113.058 57.536C111.607 57.536 110.626 56.9813 110.114 55.872C109.602 54.7627 109.346 53.4827 109.346 52.032C109.346 50.5813 109.495 49.0667 109.794 47.488C110.135 45.8667 110.498 44.3947 110.882 43.072C111.308 41.7493 111.628 40.8107 111.842 40.256C112.311 39.2747 112.78 38.4426 113.25 37.76C113.719 37.0347 114.231 36.672 114.786 36.672C115.17 36.672 115.447 36.8213 115.618 37.12C115.831 37.376 115.938 37.7173 115.938 38.144C115.938 38.9973 115.703 39.872 115.234 40.768C114.764 41.6213 114.338 42.432 113.954 43.2C113.1 44.9493 112.418 46.5067 111.906 47.872C111.436 49.2373 111.202 50.944 111.202 52.992C111.202 54.3147 111.33 55.2747 111.586 55.872C111.884 56.4693 112.29 56.768 112.802 56.768C113.484 56.768 114.274 56.384 115.17 55.616C116.066 54.8053 116.983 53.7387 117.922 52.416C118.86 51.0933 119.692 49.664 120.418 48.128C120.887 47.1466 121.25 46.656 121.506 46.656C121.676 46.656 121.762 46.8267 121.762 47.168C121.762 47.6373 121.57 48.32 121.186 49.216C120.844 50.0693 120.418 50.944 119.906 51.84C119.436 52.736 118.988 53.44 118.562 53.952C117.836 54.8907 117.004 55.7227 116.066 56.448C115.127 57.1733 114.124 57.536 113.058 57.536Z" fill="#FFE8E8"/>
<path d="M120.486 81.408C118.779 81.408 117.328 80.896 116.134 79.872C114.896 78.8907 114.278 77.568 114.278 75.904C114.278 74.24 115.067 72.2987 116.646 70.08C118.224 67.8613 120.891 65.5573 124.646 63.168C125.499 62.5707 126.395 62.0373 127.334 61.568C128.315 61.0987 129.318 60.608 130.342 60.096C130.598 59.968 130.79 59.904 130.918 59.904C131.088 59.904 131.174 59.968 131.174 60.096C131.174 60.3947 130.875 60.7147 130.278 61.056C128.23 62.08 126.48 63.1466 125.03 64.256C123.622 65.408 122.32 66.752 121.126 68.288C120.486 69.0987 119.803 70.0373 119.078 71.104C118.395 72.2133 117.819 73.3013 117.35 74.368C116.838 75.4346 116.582 76.3947 116.582 77.248C116.582 79.04 117.435 79.936 119.142 79.936C119.867 79.936 120.72 79.7227 121.702 79.296C122.683 78.912 123.75 78.272 124.902 77.376C127.803 75.1147 129.851 72.5973 131.046 69.824C132.24 67.0933 132.838 63.8933 132.838 60.224C132.838 57.4933 132.582 54.464 132.07 51.136C131.6 47.7227 131.344 44.4586 131.302 41.344C131.088 42.6666 130.726 44.2666 130.214 46.144C129.744 47.9786 129.168 49.728 128.486 51.392C127.803 53.056 127.035 54.4853 126.182 55.68C125.371 56.8747 124.326 57.472 123.046 57.472C122.15 57.472 121.382 57.024 120.742 56.128C120.144 55.232 119.846 53.8667 119.846 52.032C119.846 50.6667 120.08 49.0453 120.55 47.168C121.019 45.2907 121.659 43.4773 122.47 41.728C123.28 39.936 124.176 38.464 125.158 37.312C126.182 36.1173 127.206 35.52 128.23 35.52C128.955 35.52 129.467 35.8187 129.766 36.416C130.107 36.9707 130.278 37.5466 130.278 38.144C130.278 38.6133 130.192 39.0187 130.022 39.36C129.851 39.7013 129.595 39.872 129.254 39.872C128.912 39.8293 128.656 39.68 128.486 39.424C128.358 39.1253 128.23 38.848 128.102 38.592C127.974 38.2933 127.739 38.144 127.398 38.144C126.715 38.144 126.054 38.592 125.414 39.488C124.816 40.3413 124.262 41.472 123.75 42.88C123.28 44.2453 122.896 45.696 122.598 47.232C122.342 48.768 122.214 50.176 122.214 51.456C122.214 52.6507 122.342 53.632 122.598 54.4C122.896 55.168 123.344 55.5733 123.942 55.616C124.667 55.6587 125.371 55.1893 126.054 54.208C126.736 53.2267 127.355 51.968 127.91 50.432C128.507 48.896 129.019 47.2747 129.446 45.568C129.915 43.8187 130.299 42.1973 130.598 40.704C130.939 39.168 131.174 37.9733 131.302 37.12C131.643 34.8587 131.963 33.4293 132.262 32.832C132.56 32.192 132.88 31.872 133.222 31.872C133.52 31.872 133.776 32.1493 133.99 32.704C134.246 33.2587 134.374 33.7706 134.374 34.24C134.374 34.5813 134.352 34.816 134.31 34.944C133.798 37.76 133.542 40.64 133.542 43.584C133.542 44.8213 133.584 46.0586 133.67 47.296C133.755 48.4906 133.862 49.6853 133.99 50.88C134.246 53.3547 134.374 55.6587 134.374 57.792C134.374 62.144 133.926 65.8133 133.03 68.8C132.176 71.8293 131.046 74.2613 129.638 76.096C128.23 77.9733 126.715 79.3173 125.094 80.128C123.515 80.9813 121.979 81.408 120.486 81.408Z" fill="#FFE8E8"/>
<path d="M145.584 67.2C144.602 67.2 143.856 66.7947 143.344 65.984C142.874 65.1733 142.64 64.2347 142.64 63.168C142.64 61.888 142.874 60.416 143.344 58.752C143.856 57.1307 144.474 55.4666 145.2 53.76C145.925 52.0106 146.672 50.3253 147.44 48.704C148.25 47.0826 148.954 45.632 149.552 44.352C150.192 43.072 150.618 42.0906 150.832 41.408C151.088 40.64 151.216 40.064 151.216 39.68C151.216 39.2533 151.066 39.04 150.768 39.04C150.426 39.04 149.914 39.3173 149.232 39.872C148.592 40.384 147.952 40.96 147.312 41.6C146.714 42.24 146.288 42.7093 146.032 43.008C144.666 44.544 143.429 46.2506 142.32 48.128C141.253 50.0053 140.592 51.6053 140.336 52.928C140.293 53.1413 140.208 53.5253 140.08 54.08C139.994 54.6347 139.802 54.8907 139.504 54.848C139.077 54.7627 138.778 54.5067 138.608 54.08C138.48 53.6107 138.394 53.184 138.352 52.8C138.352 52.5867 138.33 52.3733 138.288 52.16C138.288 51.904 138.288 51.648 138.288 51.392C138.288 49.3013 138.522 46.9333 138.992 44.288C139.461 41.6426 140.058 38.9333 140.784 36.16C141.552 33.3867 142.362 30.8053 143.216 28.416C144.069 26.0267 144.88 24.0426 145.648 22.464C146.032 21.696 146.458 20.9706 146.928 20.288C147.397 19.5626 147.866 19.2 148.336 19.2C148.634 19.2 148.89 19.3493 149.104 19.648C149.36 19.9466 149.488 20.2026 149.488 20.416C149.488 20.5866 149.189 21.2693 148.592 22.464C148.037 23.616 147.312 25.152 146.416 27.072C145.52 28.9493 144.602 31.104 143.664 33.536C142.768 35.968 141.957 38.5707 141.232 41.344C140.506 44.1173 140.016 46.9333 139.76 49.792C139.76 49.8347 139.738 50.048 139.696 50.432C139.653 50.816 139.61 51.2 139.568 51.584C139.568 51.968 139.568 52.16 139.568 52.16V52.096H139.632C139.717 51.584 139.866 51.0933 140.08 50.624C140.336 50.1547 140.592 49.7067 140.848 49.28C142.128 46.72 143.77 44.2666 145.776 41.92C146.757 40.8106 147.781 39.8507 148.848 39.04C149.914 38.1867 151.024 37.76 152.176 37.76C152.645 37.76 153.05 37.888 153.392 38.144C153.733 38.4 153.904 38.8906 153.904 39.616C153.904 40.5546 153.584 41.664 152.944 42.944C152.346 44.1813 151.6 45.4827 150.704 46.848C149.85 48.1707 149.061 49.4293 148.336 50.624C147.354 52.288 146.458 54.0587 145.648 55.936C144.88 57.7707 144.496 59.6907 144.496 61.696C144.496 62.2933 144.538 62.9333 144.624 63.616C144.752 64.2987 144.944 64.8747 145.2 65.344C145.498 65.856 145.904 66.112 146.416 66.112C146.757 66.112 147.077 66.0053 147.376 65.792C147.717 65.6213 147.994 65.4506 148.208 65.28C148.592 64.896 148.848 64.704 148.976 64.704C149.104 64.704 149.168 64.768 149.168 64.896C149.168 65.152 149.061 65.3867 148.848 65.6C148.634 65.856 148.421 66.048 148.208 66.176C147.909 66.432 147.504 66.6666 146.992 66.88C146.522 67.0933 146.053 67.2 145.584 67.2Z" fill="#FFE8E8"/>
<path d="M158.92 66.24C158.493 66.24 158.045 65.9626 157.576 65.408C157.149 64.896 156.744 64.1707 156.36 63.232C155.72 61.696 155.272 60.0747 155.016 58.368C154.76 56.704 154.632 55.0187 154.632 53.312C154.632 51.4347 154.76 49.6 155.016 47.808C155.272 46.016 155.549 44.3947 155.848 42.944C156.061 41.92 156.317 40.832 156.616 39.68C156.914 38.528 157.192 37.6107 157.448 36.928C157.192 36.9707 156.786 37.12 156.232 37.376C155.677 37.632 155.101 37.888 154.504 38.144C153.949 38.4 153.458 38.528 153.032 38.528C152.392 38.528 152.072 38.1653 152.072 37.44C152.072 37.056 152.2 36.7147 152.456 36.416C152.754 36.1173 153.117 35.8826 153.544 35.712C154.397 35.328 155.336 35.0506 156.36 34.88C157.384 34.6666 158.066 34.4533 158.408 34.24L160.072 30.016C160.242 29.5893 160.541 28.9067 160.968 27.968C161.437 26.9866 161.97 25.9413 162.568 24.832C163.208 23.7227 163.826 22.72 164.424 21.824C164.893 21.1413 165.341 20.608 165.768 20.224C166.194 19.7973 166.664 19.584 167.176 19.584C167.944 19.584 168.328 19.8827 168.328 20.48C168.328 20.8213 168.178 21.3333 167.88 22.016C167.624 22.6986 167.133 23.5946 166.408 24.704C165.597 25.984 164.765 27.264 163.912 28.544C163.101 29.7813 162.397 31.0827 161.8 32.448C161.757 32.6186 161.65 32.896 161.48 33.28C161.352 33.6213 161.245 33.8347 161.16 33.92L162.44 33.728C162.781 33.6853 163.165 33.664 163.592 33.664C164.018 33.6213 164.488 33.6 165 33.6C165.725 33.6 166.408 33.6426 167.048 33.728C167.73 33.7706 168.285 33.8773 168.712 34.048C168.925 34.1333 169.117 34.24 169.288 34.368C169.501 34.4533 169.608 34.5387 169.608 34.624C169.608 34.7947 169.053 34.88 167.944 34.88C167.304 34.88 166.386 34.9866 165.192 35.2C164.04 35.4133 162.717 35.7547 161.224 36.224C160.498 36.4373 160.008 36.736 159.752 37.12C159.496 37.504 159.154 38.4213 158.728 39.872C158.088 42.176 157.576 44.3947 157.192 46.528C156.808 48.6187 156.509 50.752 156.296 52.928C156.253 53.3547 156.21 53.8027 156.168 54.272C156.168 54.7413 156.168 55.2533 156.168 55.808C156.168 57.2587 156.296 58.7733 156.552 60.352C156.85 61.9307 157.277 63.296 157.832 64.448C157.96 64.704 158.088 64.9387 158.216 65.152C158.386 65.3653 158.578 65.5146 158.792 65.6C159.09 65.728 159.24 65.8773 159.24 66.048C159.24 66.176 159.133 66.24 158.92 66.24Z" fill="#FFE8E8"/>
<path d="M188.519 66.176C187.964 66.176 187.431 65.9627 186.919 65.536C186.449 65.1093 186.044 64.6826 185.703 64.256C184.337 62.6773 183.185 60.5867 182.247 57.984C181.351 55.3813 180.668 52.5227 180.199 49.408C179.729 46.2507 179.495 43.0507 179.495 39.808C179.495 36.7787 179.687 33.8347 180.071 30.976C180.497 28.1173 181.137 25.5146 181.991 23.168C182.844 20.8213 183.911 18.944 185.191 17.536C186.855 15.6586 188.455 14.72 189.991 14.72C190.929 14.72 191.676 15.1466 192.231 16C192.828 16.8107 193.127 18.112 193.127 19.904C193.127 21.6106 192.785 23.7866 192.103 26.432C191.463 29.0347 190.353 32.1493 188.775 35.776C188.22 36.9707 187.623 38.1653 186.983 39.36C186.385 40.5547 185.745 41.8133 185.062 43.136C184.807 43.648 184.593 43.904 184.423 43.904C184.337 43.904 184.295 43.8186 184.295 43.648C184.295 43.3067 184.444 42.8587 184.743 42.304C188.625 35.008 190.567 27.7547 190.567 20.544C190.567 17.6853 189.969 16.256 188.775 16.256C187.921 16.256 186.919 17.088 185.767 18.752C184.188 21.0987 183.1 23.8933 182.503 27.136C181.905 30.336 181.607 33.5787 181.607 36.864C181.607 39.3387 181.713 41.7493 181.927 44.096C182.14 46.4 182.396 48.4907 182.695 50.368C182.823 51.1787 183.015 52.2667 183.271 53.632C183.527 54.9973 183.868 56.4266 184.295 57.92C184.721 59.456 185.191 60.8427 185.703 62.08C186.257 63.36 186.855 64.2773 187.495 64.832C187.665 64.96 187.836 65.088 188.007 65.216C188.22 65.3867 188.455 65.4933 188.711 65.536C189.095 65.536 189.287 65.6427 189.287 65.856C189.287 66.0693 189.031 66.176 188.519 66.176Z" fill="#FFE8E8"/>
<path d="M196.197 34.624C195.813 34.624 195.535 34.432 195.365 34.048C195.237 33.6213 195.173 33.3227 195.173 33.152C195.173 32.4693 195.365 31.8293 195.749 31.232C196.175 30.592 196.645 30.2507 197.157 30.208H197.349C197.861 30.208 198.202 30.336 198.373 30.592C198.586 30.8053 198.693 31.0827 198.693 31.424C198.693 32.064 198.415 32.768 197.861 33.536C197.306 34.2613 196.751 34.624 196.197 34.624ZM192.933 57.536C191.482 57.536 190.501 56.9813 189.989 55.872C189.477 54.7627 189.221 53.4827 189.221 52.032C189.221 50.5813 189.37 49.0667 189.669 47.488C190.01 45.8667 190.373 44.3947 190.757 43.072C191.183 41.7493 191.503 40.8107 191.717 40.256C192.186 39.2747 192.655 38.4426 193.125 37.76C193.594 37.0347 194.106 36.672 194.661 36.672C195.045 36.672 195.322 36.8213 195.493 37.12C195.706 37.376 195.812 37.7173 195.812 38.144C195.812 38.9973 195.578 39.872 195.109 40.768C194.639 41.6213 194.213 42.432 193.829 43.2C192.975 44.9493 192.293 46.5067 191.781 47.872C191.311 49.2373 191.077 50.944 191.077 52.992C191.077 54.3147 191.205 55.2747 191.461 55.872C191.759 56.4693 192.165 56.768 192.677 56.768C193.359 56.768 194.149 56.384 195.045 55.616C195.941 54.8053 196.858 53.7387 197.797 52.416C198.735 51.0933 199.567 49.664 200.293 48.128C200.762 47.1466 201.125 46.656 201.381 46.656C201.551 46.656 201.637 46.8267 201.637 47.168C201.637 47.6373 201.445 48.32 201.061 49.216C200.719 50.0693 200.293 50.944 199.781 51.84C199.311 52.736 198.863 53.44 198.437 53.952C197.711 54.8907 196.879 55.7227 195.941 56.448C195.002 57.1733 193.999 57.536 192.933 57.536Z" fill="#FFE8E8"/>
<path d="M197.033 65.28C196.606 65.28 196.265 65.152 196.009 64.896C195.71 64.64 195.667 64.3413 195.881 64C196.478 63.104 197.054 61.824 197.609 60.16C198.121 58.5387 198.569 56.832 198.953 55.04C199.379 53.248 199.721 51.6267 199.977 50.176C200.275 48.6827 200.489 47.6373 200.617 47.04C199.849 46.3147 199.465 45.504 199.465 44.608C199.465 43.9253 199.614 43.3493 199.913 42.88C200.254 42.4106 200.51 42.1973 200.681 42.24C200.766 42.24 200.873 42.2827 201.001 42.368C201.171 42.4107 201.257 42.4746 201.257 42.56C201.513 40.5546 201.726 38.5707 201.897 36.608C202.067 34.6027 202.153 32.768 202.153 31.104C202.153 29.7386 202.089 28.5226 201.961 27.456C201.833 26.3893 201.641 25.536 201.385 24.896C201.129 24.256 201.001 23.7653 201.001 23.424C201.001 22.9546 201.129 22.72 201.385 22.72C201.683 22.72 201.918 22.912 202.089 23.296C202.558 24.2346 202.899 25.7066 203.113 27.712C203.369 29.7173 203.497 32 203.497 34.56C203.497 36.3093 203.454 38.1653 203.368 40.128C203.283 42.048 203.134 43.968 202.921 45.888C203.689 45.2053 204.478 44.544 205.289 43.904C206.099 43.2213 206.803 42.5173 207.401 41.792V41.728C207.401 41.6427 207.358 41.5573 207.273 41.472C207.23 41.3867 207.209 41.2586 207.209 41.088C207.209 40.7893 207.422 40.4267 207.849 40C208.275 39.5733 208.83 38.976 209.513 38.208C210.238 37.3973 210.985 36.672 211.753 36.032C212.521 35.3493 213.225 35.0293 213.865 35.072C214.377 35.072 214.633 35.2427 214.633 35.584C214.633 35.968 214.27 36.544 213.545 37.312C212.819 38.08 211.945 38.8907 210.921 39.744C209.939 40.5973 209.022 41.3867 208.169 42.112C207.358 42.7947 206.825 43.264 206.569 43.52L204.137 46.208L202.857 47.552C203.411 48.96 204.051 50.3466 204.777 51.712C205.502 53.0773 206.313 54.208 207.209 55.104C208.147 56 209.107 56.448 210.089 56.448C211.113 56.448 212.158 55.8293 213.225 54.592C213.95 53.696 214.569 52.6933 215.081 51.584C215.593 50.4747 216.019 49.6427 216.361 49.088C216.574 48.6613 216.787 48.384 217.001 48.256C217.214 48.0853 217.385 48 217.513 48C217.811 48 217.918 48.2133 217.833 48.64C217.662 49.1947 217.363 49.8987 216.937 50.752C216.51 51.6053 216.083 52.416 215.657 53.184C215.273 53.9093 214.974 54.4213 214.761 54.72C213.95 55.9147 213.139 56.7893 212.329 57.344C211.518 57.8987 210.729 58.176 209.961 58.176C208.979 58.176 208.019 57.8133 207.081 57.088C206.142 56.3627 205.267 55.424 204.457 54.272C203.689 53.12 202.985 51.904 202.345 50.624C201.875 53.8667 201.299 56.768 200.617 59.328C199.934 61.9307 199.187 63.7227 198.377 64.704C197.993 65.088 197.545 65.28 197.033 65.28Z" fill="#FFE8E8"/>
<path d="M222.235 56.832C220.699 56.832 219.355 55.936 218.203 54.144C217.094 52.3093 216.539 49.4293 216.539 45.504C216.539 42.944 216.859 40.896 217.499 39.36C218.139 37.7813 218.928 36.6293 219.867 35.904C220.806 35.1786 221.702 34.816 222.555 34.816C223.408 34.816 224.134 35.1146 224.731 35.712C225.328 36.2666 225.627 37.0773 225.627 38.144C225.627 39.168 225.328 40.256 224.731 41.408C224.134 42.5173 223.408 43.5413 222.555 44.48C221.744 45.376 220.934 45.9733 220.123 46.272C219.952 46.3573 219.739 46.4 219.483 46.4C219.312 46.4 219.227 46.336 219.227 46.208C219.227 45.8667 219.568 45.4827 220.251 45.056C221.104 44.4587 221.915 43.5627 222.683 42.368C223.451 41.1307 223.835 40.0427 223.835 39.104C223.835 38.5493 223.707 38.1226 223.451 37.824C223.195 37.4826 222.896 37.312 222.555 37.312C221.915 37.312 221.211 37.824 220.443 38.848C219.718 39.8293 219.184 41.536 218.843 43.968C218.758 44.6507 218.672 45.312 218.587 45.952C218.544 46.5493 218.523 47.1467 218.523 47.744C218.523 50.1333 218.886 52.0107 219.611 53.376C220.336 54.6987 221.296 55.36 222.491 55.36C223.515 55.36 224.667 54.7627 225.947 53.568C227.227 52.3307 228.486 50.4107 229.723 47.808C230.022 47.1253 230.363 46.784 230.747 46.784C231.003 46.784 231.131 46.9546 231.131 47.296C231.131 47.5946 231.046 47.9147 230.875 48.256C229.766 50.9867 228.422 53.0987 226.843 54.592C225.264 56.0853 223.728 56.832 222.235 56.832Z" fill="#FFE8E8"/>
<path d="M231.787 56.896C231.488 57.024 231.147 56.8533 230.763 56.384C230.421 55.9147 230.251 55.4453 230.251 54.976C230.251 54.5493 230.421 54.1867 230.763 53.888C231.104 53.5893 231.317 53.4187 231.403 53.376C231.573 53.1627 231.957 52.8853 232.555 52.544C233.195 52.16 233.792 51.84 234.347 51.584C234.944 51.328 235.264 51.2853 235.307 51.456C235.392 51.6267 235.328 51.776 235.115 51.904C234.944 51.9893 234.709 52.2453 234.411 52.672C234.112 53.056 233.813 53.7813 233.515 54.848C233.387 55.232 233.216 55.616 233.003 56C232.789 56.3413 232.384 56.64 231.787 56.896Z" fill="#FFE8E8"/>
<path d="M242.224 56.896C241.925 57.024 241.584 56.8533 241.2 56.384C240.859 55.9147 240.688 55.4453 240.688 54.976C240.688 54.5493 240.859 54.1867 241.2 53.888C241.541 53.5893 241.755 53.4187 241.84 53.376C242.011 53.1627 242.395 52.8853 242.992 52.544C243.632 52.16 244.229 51.84 244.784 51.584C245.381 51.328 245.701 51.2853 245.744 51.456C245.829 51.6267 245.765 51.776 245.552 51.904C245.381 51.9893 245.147 52.2453 244.848 52.672C244.549 53.056 244.251 53.7813 243.952 54.848C243.824 55.232 243.653 55.616 243.44 56C243.227 56.3413 242.821 56.64 242.224 56.896Z" fill="#FFE8E8"/>
<path d="M252.662 56.896C252.363 57.024 252.022 56.8533 251.638 56.384C251.296 55.9147 251.126 55.4453 251.126 54.976C251.126 54.5493 251.296 54.1867 251.638 53.888C251.979 53.5893 252.192 53.4187 252.278 53.376C252.448 53.1627 252.832 52.8853 253.43 52.544C254.07 52.16 254.667 51.84 255.222 51.584C255.819 51.328 256.139 51.2853 256.182 51.456C256.267 51.6267 256.203 51.776 255.99 51.904C255.819 51.9893 255.584 52.2453 255.286 52.672C254.987 53.056 254.688 53.7813 254.39 54.848C254.262 55.232 254.091 55.616 253.878 56C253.664 56.3413 253.259 56.64 252.662 56.896Z" fill="#FFE8E8"/>
</svg>
